<mxfile host="app.diagrams.net" modified="2020-09-25T10:38:26.340Z" agent="5.0 (Windows NT 10.0; Win64; x64) AppleWebKit/537.36 (KHTML, like Gecko) Chrome/85.0.4183.121 Safari/537.36" etag="3d2luP-rU5b6aKl40PE4" version="13.7.5" type="github">
  <diagram id="nvP0q_4fL8uYvyd8b_Zr" name="Page-1">
    <mxGraphModel dx="4016" dy="1486" grid="1" gridSize="10" guides="1" tooltips="1" connect="1" arrows="1" fold="1" page="1" pageScale="1" pageWidth="850" pageHeight="1100" math="0" shadow="0">
      <root>
        <mxCell id="0" />
        <mxCell id="1" parent="0" />
        <mxCell id="kxt7OzJLR1ZBJD5P8w2T-139" value="" style="edgeStyle=elbowEdgeStyle;fontSize=12;html=1;endArrow=ERzeroToMany;startArrow=ERmandOne;entryX=0;entryY=0.5;entryDx=0;entryDy=0;" parent="1" target="kxt7OzJLR1ZBJD5P8w2T-86" edge="1">
          <mxGeometry width="100" height="100" relative="1" as="geometry">
            <mxPoint x="-43" y="390" as="sourcePoint" />
            <mxPoint x="35" y="492" as="targetPoint" />
            <Array as="points">
              <mxPoint x="-43" y="442" />
            </Array>
          </mxGeometry>
        </mxCell>
        <mxCell id="kxt7OzJLR1ZBJD5P8w2T-140" value="" style="edgeStyle=elbowEdgeStyle;fontSize=12;html=1;endArrow=ERoneToMany;startArrow=ERmandOne;exitX=0.25;exitY=0;exitDx=0;exitDy=0;entryX=0;entryY=0.5;entryDx=0;entryDy=0;" parent="1" source="kxt7OzJLR1ZBJD5P8w2T-88" target="kxt7OzJLR1ZBJD5P8w2T-148" edge="1">
          <mxGeometry width="100" height="100" relative="1" as="geometry">
            <mxPoint x="-13" y="632" as="sourcePoint" />
            <mxPoint x="37" y="532" as="targetPoint" />
            <Array as="points">
              <mxPoint x="-13" y="592" />
            </Array>
          </mxGeometry>
        </mxCell>
        <mxCell id="kxt7OzJLR1ZBJD5P8w2T-141" value="" style="edgeStyle=elbowEdgeStyle;fontSize=12;html=1;endArrow=ERoneToMany;startArrow=ERmandOne;exitX=-0.007;exitY=0.102;exitDx=0;exitDy=0;elbow=vertical;exitPerimeter=0;" parent="1" source="kxt7OzJLR1ZBJD5P8w2T-82" edge="1">
          <mxGeometry width="100" height="100" relative="1" as="geometry">
            <mxPoint x="156.99999999999977" y="442" as="sourcePoint" />
            <mxPoint x="135" y="552" as="targetPoint" />
            <Array as="points">
              <mxPoint x="187" y="595" />
            </Array>
          </mxGeometry>
        </mxCell>
        <mxCell id="kxt7OzJLR1ZBJD5P8w2T-142" value="" style="edgeStyle=elbowEdgeStyle;fontSize=12;html=1;endArrow=ERoneToMany;startArrow=ERmandOne;elbow=vertical;" parent="1" edge="1">
          <mxGeometry width="100" height="100" relative="1" as="geometry">
            <mxPoint x="367" y="422" as="sourcePoint" />
            <mxPoint x="367" y="536" as="targetPoint" />
            <Array as="points">
              <mxPoint x="367" y="484" />
            </Array>
          </mxGeometry>
        </mxCell>
        <mxCell id="kxt7OzJLR1ZBJD5P8w2T-143" value="" style="edgeStyle=elbowEdgeStyle;fontSize=12;html=1;endArrow=ERzeroToMany;startArrow=ERmandOne;exitX=1;exitY=0.5;exitDx=0;exitDy=0;" parent="1" source="kxt7OzJLR1ZBJD5P8w2T-81" edge="1">
          <mxGeometry width="100" height="100" relative="1" as="geometry">
            <mxPoint x="497" y="492" as="sourcePoint" />
            <mxPoint x="587" y="445" as="targetPoint" />
            <Array as="points">
              <mxPoint x="527" y="522" />
            </Array>
          </mxGeometry>
        </mxCell>
        <mxCell id="kxt7OzJLR1ZBJD5P8w2T-144" value="" style="edgeStyle=elbowEdgeStyle;fontSize=12;html=1;endArrow=ERzeroToMany;startArrow=ERmandOne;exitX=-0.01;exitY=-0.157;exitDx=0;exitDy=0;exitPerimeter=0;" parent="1" source="kxt7OzJLR1ZBJD5P8w2T-131" edge="1">
          <mxGeometry width="100" height="100" relative="1" as="geometry">
            <mxPoint x="867" y="574" as="sourcePoint" />
            <mxPoint x="747" y="443" as="targetPoint" />
            <Array as="points">
              <mxPoint x="789" y="535" />
            </Array>
          </mxGeometry>
        </mxCell>
        <mxCell id="kxt7OzJLR1ZBJD5P8w2T-145" value="" style="edgeStyle=elbowEdgeStyle;fontSize=12;html=1;endArrow=ERzeroToMany;startArrow=ERmandOne;exitX=1;exitY=0.5;exitDx=0;exitDy=0;" parent="1" edge="1">
          <mxGeometry width="100" height="100" relative="1" as="geometry">
            <mxPoint x="457" y="624" as="sourcePoint" />
            <mxPoint x="584" y="730" as="targetPoint" />
            <Array as="points">
              <mxPoint x="527" y="569" />
            </Array>
          </mxGeometry>
        </mxCell>
        <mxCell id="kxt7OzJLR1ZBJD5P8w2T-146" value="" style="edgeStyle=elbowEdgeStyle;fontSize=12;html=1;endArrow=ERzeroToMany;startArrow=ERmandOne;exitX=-0.01;exitY=-0.157;exitDx=0;exitDy=0;exitPerimeter=0;entryX=1.023;entryY=0.033;entryDx=0;entryDy=0;entryPerimeter=0;" parent="1" target="kxt7OzJLR1ZBJD5P8w2T-123" edge="1">
          <mxGeometry width="100" height="100" relative="1" as="geometry">
            <mxPoint x="867.0000000000001" y="612.29" as="sourcePoint" />
            <mxPoint x="748.6" y="482" as="targetPoint" />
            <Array as="points">
              <mxPoint x="790.6" y="574" />
            </Array>
          </mxGeometry>
        </mxCell>
        <mxCell id="kxt7OzJLR1ZBJD5P8w2T-147" value="" style="edgeStyle=elbowEdgeStyle;fontSize=12;html=1;endArrow=ERzeroToMany;startArrow=ERmandOne;exitX=0.5;exitY=0;exitDx=0;exitDy=0;elbow=vertical;" parent="1" source="kxt7OzJLR1ZBJD5P8w2T-129" edge="1">
          <mxGeometry width="100" height="100" relative="1" as="geometry">
            <mxPoint x="975.4000000000001" y="502.28999999999996" as="sourcePoint" />
            <mxPoint x="947" y="402" as="targetPoint" />
            <Array as="points">
              <mxPoint x="937" y="432" />
            </Array>
          </mxGeometry>
        </mxCell>
        <mxCell id="kxt7OzJLR1ZBJD5P8w2T-88" value="Ingrédient" style="swimlane;fontStyle=0;childLayout=stackLayout;horizontal=1;startSize=26;horizontalStack=0;resizeParent=1;resizeParentMax=0;resizeLast=0;collapsible=1;marginBottom=0;align=center;fontSize=14;" parent="1" vertex="1">
          <mxGeometry x="-53" y="638" width="160" height="116" as="geometry" />
        </mxCell>
        <mxCell id="kxt7OzJLR1ZBJD5P8w2T-89" value="id_ingredient" style="text;strokeColor=none;fillColor=none;spacingLeft=4;spacingRight=4;overflow=hidden;rotatable=0;points=[[0,0.5],[1,0.5]];portConstraint=eastwest;fontSize=12;fontStyle=4" parent="kxt7OzJLR1ZBJD5P8w2T-88" vertex="1">
          <mxGeometry y="26" width="160" height="30" as="geometry" />
        </mxCell>
        <mxCell id="kxt7OzJLR1ZBJD5P8w2T-90" value="nom_ingredient" style="text;strokeColor=none;fillColor=none;spacingLeft=4;spacingRight=4;overflow=hidden;rotatable=0;points=[[0,0.5],[1,0.5]];portConstraint=eastwest;fontSize=12;" parent="kxt7OzJLR1ZBJD5P8w2T-88" vertex="1">
          <mxGeometry y="56" width="160" height="30" as="geometry" />
        </mxCell>
        <mxCell id="kxt7OzJLR1ZBJD5P8w2T-91" value="url_image_ing" style="text;strokeColor=none;fillColor=none;spacingLeft=4;spacingRight=4;overflow=hidden;rotatable=0;points=[[0,0.5],[1,0.5]];portConstraint=eastwest;fontSize=12;" parent="kxt7OzJLR1ZBJD5P8w2T-88" vertex="1">
          <mxGeometry y="86" width="160" height="30" as="geometry" />
        </mxCell>
        <mxCell id="kxt7OzJLR1ZBJD5P8w2T-84" value="Composition" style="swimlane;fontStyle=0;childLayout=stackLayout;horizontal=1;startSize=26;horizontalStack=0;resizeParent=1;resizeParentMax=0;resizeLast=0;collapsible=1;marginBottom=0;align=center;fontSize=14;" parent="1" vertex="1">
          <mxGeometry x="37" y="405" width="160" height="146" as="geometry" />
        </mxCell>
        <mxCell id="kxt7OzJLR1ZBJD5P8w2T-85" value="#id_cocktail" style="text;strokeColor=none;fillColor=none;spacingLeft=4;spacingRight=4;overflow=hidden;rotatable=0;points=[[0,0.5],[1,0.5]];portConstraint=eastwest;fontSize=12;fontStyle=4" parent="kxt7OzJLR1ZBJD5P8w2T-84" vertex="1">
          <mxGeometry y="26" width="160" height="30" as="geometry" />
        </mxCell>
        <mxCell id="kxt7OzJLR1ZBJD5P8w2T-86" value="#id_ingredient" style="text;strokeColor=none;fillColor=none;spacingLeft=4;spacingRight=4;overflow=hidden;rotatable=0;points=[[0,0.5],[1,0.5]];portConstraint=eastwest;fontSize=12;fontStyle=4" parent="kxt7OzJLR1ZBJD5P8w2T-84" vertex="1">
          <mxGeometry y="56" width="160" height="30" as="geometry" />
        </mxCell>
        <mxCell id="kxt7OzJLR1ZBJD5P8w2T-87" value="#Id_unité" style="text;strokeColor=none;fillColor=none;spacingLeft=4;spacingRight=4;overflow=hidden;rotatable=0;points=[[0,0.5],[1,0.5]];portConstraint=eastwest;fontSize=12;" parent="kxt7OzJLR1ZBJD5P8w2T-84" vertex="1">
          <mxGeometry y="86" width="160" height="30" as="geometry" />
        </mxCell>
        <mxCell id="kxt7OzJLR1ZBJD5P8w2T-148" value="Quantité" style="text;strokeColor=none;fillColor=none;spacingLeft=4;spacingRight=4;overflow=hidden;rotatable=0;points=[[0,0.5],[1,0.5]];portConstraint=eastwest;fontSize=12;" parent="kxt7OzJLR1ZBJD5P8w2T-84" vertex="1">
          <mxGeometry y="116" width="160" height="30" as="geometry" />
        </mxCell>
        <mxCell id="kxt7OzJLR1ZBJD5P8w2T-92" value="Unité" style="swimlane;fontStyle=0;childLayout=stackLayout;horizontal=1;startSize=26;horizontalStack=0;resizeParent=1;resizeParentMax=0;resizeLast=0;collapsible=1;marginBottom=0;align=center;fontSize=14;" parent="1" vertex="1">
          <mxGeometry x="-120" y="302" width="160" height="86" as="geometry" />
        </mxCell>
        <mxCell id="kxt7OzJLR1ZBJD5P8w2T-93" value="Id_unité  INTEGER" style="text;strokeColor=none;fillColor=none;spacingLeft=4;spacingRight=4;overflow=hidden;rotatable=0;points=[[0,0.5],[1,0.5]];portConstraint=eastwest;fontSize=12;fontStyle=4" parent="kxt7OzJLR1ZBJD5P8w2T-92" vertex="1">
          <mxGeometry y="26" width="160" height="30" as="geometry" />
        </mxCell>
        <mxCell id="kxt7OzJLR1ZBJD5P8w2T-94" value="Nom_unité" style="text;strokeColor=none;fillColor=none;spacingLeft=4;spacingRight=4;overflow=hidden;rotatable=0;points=[[0,0.5],[1,0.5]];portConstraint=eastwest;fontSize=12;" parent="kxt7OzJLR1ZBJD5P8w2T-92" vertex="1">
          <mxGeometry y="56" width="160" height="30" as="geometry" />
        </mxCell>
        <mxCell id="kxt7OzJLR1ZBJD5P8w2T-80" value="Cocktail" style="swimlane;fontStyle=0;childLayout=stackLayout;horizontal=1;startSize=26;horizontalStack=0;resizeParent=1;resizeParentMax=0;resizeLast=0;collapsible=1;marginBottom=0;align=center;fontSize=14;" parent="1" vertex="1">
          <mxGeometry x="297" y="536" width="160" height="176" as="geometry" />
        </mxCell>
        <mxCell id="kxt7OzJLR1ZBJD5P8w2T-81" value="id_cocktail" style="text;strokeColor=none;fillColor=none;spacingLeft=4;spacingRight=4;overflow=hidden;rotatable=0;points=[[0,0.5],[1,0.5]];portConstraint=eastwest;fontSize=12;fontStyle=4" parent="kxt7OzJLR1ZBJD5P8w2T-80" vertex="1">
          <mxGeometry y="26" width="160" height="30" as="geometry" />
        </mxCell>
        <mxCell id="kxt7OzJLR1ZBJD5P8w2T-82" value="nom_cocktail" style="text;strokeColor=none;fillColor=none;spacingLeft=4;spacingRight=4;overflow=hidden;rotatable=0;points=[[0,0.5],[1,0.5]];portConstraint=eastwest;fontSize=12;" parent="kxt7OzJLR1ZBJD5P8w2T-80" vertex="1">
          <mxGeometry y="56" width="160" height="30" as="geometry" />
        </mxCell>
        <mxCell id="kxt7OzJLR1ZBJD5P8w2T-83" value="url_image_cock" style="text;strokeColor=none;fillColor=none;spacingLeft=4;spacingRight=4;overflow=hidden;rotatable=0;points=[[0,0.5],[1,0.5]];portConstraint=eastwest;fontSize=12;" parent="kxt7OzJLR1ZBJD5P8w2T-80" vertex="1">
          <mxGeometry y="86" width="160" height="30" as="geometry" />
        </mxCell>
        <mxCell id="2r__MozO7OoLnBm7WLix-1" value="instructions" style="text;strokeColor=none;fillColor=none;spacingLeft=4;spacingRight=4;overflow=hidden;rotatable=0;points=[[0,0.5],[1,0.5]];portConstraint=eastwest;fontSize=12;" parent="kxt7OzJLR1ZBJD5P8w2T-80" vertex="1">
          <mxGeometry y="116" width="160" height="30" as="geometry" />
        </mxCell>
        <mxCell id="Q8o9DyRSZyGHENXpAblP-1" value="alcool   BOOL" style="text;strokeColor=none;fillColor=none;spacingLeft=4;spacingRight=4;overflow=hidden;rotatable=0;points=[[0,0.5],[1,0.5]];portConstraint=eastwest;fontSize=12;" parent="kxt7OzJLR1ZBJD5P8w2T-80" vertex="1">
          <mxGeometry y="146" width="160" height="30" as="geometry" />
        </mxCell>
        <mxCell id="kxt7OzJLR1ZBJD5P8w2T-113" value="Favoris" style="swimlane;fontStyle=0;childLayout=stackLayout;horizontal=1;startSize=26;horizontalStack=0;resizeParent=1;resizeParentMax=0;resizeLast=0;collapsible=1;marginBottom=0;align=center;fontSize=14;" parent="1" vertex="1">
          <mxGeometry x="587" y="381" width="160" height="86" as="geometry" />
        </mxCell>
        <mxCell id="kxt7OzJLR1ZBJD5P8w2T-115" value="#id_user" style="text;strokeColor=none;fillColor=none;spacingLeft=4;spacingRight=4;overflow=hidden;rotatable=0;points=[[0,0.5],[1,0.5]];portConstraint=eastwest;fontSize=12;fontStyle=4" parent="kxt7OzJLR1ZBJD5P8w2T-113" vertex="1">
          <mxGeometry y="26" width="160" height="30" as="geometry" />
        </mxCell>
        <mxCell id="kxt7OzJLR1ZBJD5P8w2T-116" value="#id_cocktail" style="text;strokeColor=none;fillColor=none;spacingLeft=4;spacingRight=4;overflow=hidden;rotatable=0;points=[[0,0.5],[1,0.5]];portConstraint=eastwest;fontSize=12;fontStyle=4" parent="kxt7OzJLR1ZBJD5P8w2T-113" vertex="1">
          <mxGeometry y="56" width="160" height="30" as="geometry" />
        </mxCell>
        <mxCell id="kxt7OzJLR1ZBJD5P8w2T-121" value="Avis" style="swimlane;fontStyle=0;childLayout=stackLayout;horizontal=1;startSize=26;horizontalStack=0;resizeParent=1;resizeParentMax=0;resizeLast=0;collapsible=1;marginBottom=0;align=center;fontSize=14;" parent="1" vertex="1">
          <mxGeometry x="586" y="672" width="160" height="146" as="geometry" />
        </mxCell>
        <mxCell id="kxt7OzJLR1ZBJD5P8w2T-122" value="#id_user" style="text;strokeColor=none;fillColor=none;spacingLeft=4;spacingRight=4;overflow=hidden;rotatable=0;points=[[0,0.5],[1,0.5]];portConstraint=eastwest;fontSize=12;fontStyle=4" parent="kxt7OzJLR1ZBJD5P8w2T-121" vertex="1">
          <mxGeometry y="26" width="160" height="30" as="geometry" />
        </mxCell>
        <mxCell id="kxt7OzJLR1ZBJD5P8w2T-123" value="#id_cocktail" style="text;strokeColor=none;fillColor=none;spacingLeft=4;spacingRight=4;overflow=hidden;rotatable=0;points=[[0,0.5],[1,0.5]];portConstraint=eastwest;fontSize=12;fontStyle=4" parent="kxt7OzJLR1ZBJD5P8w2T-121" vertex="1">
          <mxGeometry y="56" width="160" height="30" as="geometry" />
        </mxCell>
        <mxCell id="kxt7OzJLR1ZBJD5P8w2T-124" value="Note" style="text;strokeColor=none;fillColor=none;spacingLeft=4;spacingRight=4;overflow=hidden;rotatable=0;points=[[0,0.5],[1,0.5]];portConstraint=eastwest;fontSize=12;" parent="kxt7OzJLR1ZBJD5P8w2T-121" vertex="1">
          <mxGeometry y="86" width="160" height="30" as="geometry" />
        </mxCell>
        <mxCell id="2r__MozO7OoLnBm7WLix-4" value="Commentaire" style="text;strokeColor=none;fillColor=none;spacingLeft=4;spacingRight=4;overflow=hidden;rotatable=0;points=[[0,0.5],[1,0.5]];portConstraint=eastwest;fontSize=12;" parent="kxt7OzJLR1ZBJD5P8w2T-121" vertex="1">
          <mxGeometry y="116" width="160" height="30" as="geometry" />
        </mxCell>
        <mxCell id="kxt7OzJLR1ZBJD5P8w2T-117" value="Contenant" style="swimlane;fontStyle=0;childLayout=stackLayout;horizontal=1;startSize=26;horizontalStack=0;resizeParent=1;resizeParentMax=0;resizeLast=0;collapsible=1;marginBottom=0;align=center;fontSize=14;" parent="1" vertex="1">
          <mxGeometry x="277" y="334" width="160" height="86" as="geometry" />
        </mxCell>
        <mxCell id="kxt7OzJLR1ZBJD5P8w2T-118" value="id_contenant" style="text;strokeColor=none;fillColor=none;spacingLeft=4;spacingRight=4;overflow=hidden;rotatable=0;points=[[0,0.5],[1,0.5]];portConstraint=eastwest;fontSize=12;fontStyle=4" parent="kxt7OzJLR1ZBJD5P8w2T-117" vertex="1">
          <mxGeometry y="26" width="160" height="30" as="geometry" />
        </mxCell>
        <mxCell id="kxt7OzJLR1ZBJD5P8w2T-119" value="nom_contenant" style="text;strokeColor=none;fillColor=none;spacingLeft=4;spacingRight=4;overflow=hidden;rotatable=0;points=[[0,0.5],[1,0.5]];portConstraint=eastwest;fontSize=12;" parent="kxt7OzJLR1ZBJD5P8w2T-117" vertex="1">
          <mxGeometry y="56" width="160" height="30" as="geometry" />
        </mxCell>
        <mxCell id="kxt7OzJLR1ZBJD5P8w2T-129" value="Utilisateur" style="swimlane;fontStyle=0;childLayout=stackLayout;horizontal=1;startSize=26;horizontalStack=0;resizeParent=1;resizeParentMax=0;resizeLast=0;collapsible=1;marginBottom=0;align=center;fontSize=14;" parent="1" vertex="1">
          <mxGeometry x="867" y="522" width="160" height="236" as="geometry" />
        </mxCell>
        <mxCell id="kxt7OzJLR1ZBJD5P8w2T-130" value="id_user" style="text;strokeColor=none;fillColor=none;spacingLeft=4;spacingRight=4;overflow=hidden;rotatable=0;points=[[0,0.5],[1,0.5]];portConstraint=eastwest;fontSize=12;fontStyle=4" parent="kxt7OzJLR1ZBJD5P8w2T-129" vertex="1">
          <mxGeometry y="26" width="160" height="30" as="geometry" />
        </mxCell>
        <mxCell id="kxt7OzJLR1ZBJD5P8w2T-131" value="nom_user" style="text;strokeColor=none;fillColor=none;spacingLeft=4;spacingRight=4;overflow=hidden;rotatable=0;points=[[0,0.5],[1,0.5]];portConstraint=eastwest;fontSize=12;" parent="kxt7OzJLR1ZBJD5P8w2T-129" vertex="1">
          <mxGeometry y="56" width="160" height="30" as="geometry" />
        </mxCell>
        <mxCell id="kxt7OzJLR1ZBJD5P8w2T-132" value="prenom_user" style="text;strokeColor=none;fillColor=none;spacingLeft=4;spacingRight=4;overflow=hidden;rotatable=0;points=[[0,0.5],[1,0.5]];portConstraint=eastwest;fontSize=12;" parent="kxt7OzJLR1ZBJD5P8w2T-129" vertex="1">
          <mxGeometry y="86" width="160" height="30" as="geometry" />
        </mxCell>
        <mxCell id="2r__MozO7OoLnBm7WLix-5" value="password" style="text;strokeColor=none;fillColor=none;spacingLeft=4;spacingRight=4;overflow=hidden;rotatable=0;points=[[0,0.5],[1,0.5]];portConstraint=eastwest;fontSize=12;" parent="kxt7OzJLR1ZBJD5P8w2T-129" vertex="1">
          <mxGeometry y="116" width="160" height="30" as="geometry" />
        </mxCell>
        <mxCell id="2r__MozO7OoLnBm7WLix-6" value="email" style="text;strokeColor=none;fillColor=none;spacingLeft=4;spacingRight=4;overflow=hidden;rotatable=0;points=[[0,0.5],[1,0.5]];portConstraint=eastwest;fontSize=12;" parent="kxt7OzJLR1ZBJD5P8w2T-129" vertex="1">
          <mxGeometry y="146" width="160" height="30" as="geometry" />
        </mxCell>
        <mxCell id="2r__MozO7OoLnBm7WLix-7" value="ville" style="text;strokeColor=none;fillColor=none;spacingLeft=4;spacingRight=4;overflow=hidden;rotatable=0;points=[[0,0.5],[1,0.5]];portConstraint=eastwest;fontSize=12;" parent="kxt7OzJLR1ZBJD5P8w2T-129" vertex="1">
          <mxGeometry y="176" width="160" height="30" as="geometry" />
        </mxCell>
        <mxCell id="2r__MozO7OoLnBm7WLix-8" value="pays" style="text;strokeColor=none;fillColor=none;spacingLeft=4;spacingRight=4;overflow=hidden;rotatable=0;points=[[0,0.5],[1,0.5]];portConstraint=eastwest;fontSize=12;" parent="kxt7OzJLR1ZBJD5P8w2T-129" vertex="1">
          <mxGeometry y="206" width="160" height="30" as="geometry" />
        </mxCell>
        <mxCell id="kxt7OzJLR1ZBJD5P8w2T-109" value="Historique" style="swimlane;fontStyle=0;childLayout=stackLayout;horizontal=1;startSize=26;horizontalStack=0;resizeParent=1;resizeParentMax=0;resizeLast=0;collapsible=1;marginBottom=0;align=center;fontSize=14;" parent="1" vertex="1">
          <mxGeometry x="867" y="283" width="160" height="116" as="geometry" />
        </mxCell>
        <mxCell id="kxt7OzJLR1ZBJD5P8w2T-110" value="id_historique" style="text;strokeColor=none;fillColor=none;spacingLeft=4;spacingRight=4;overflow=hidden;rotatable=0;points=[[0,0.5],[1,0.5]];portConstraint=eastwest;fontSize=12;" parent="kxt7OzJLR1ZBJD5P8w2T-109" vertex="1">
          <mxGeometry y="26" width="160" height="30" as="geometry" />
        </mxCell>
        <mxCell id="kxt7OzJLR1ZBJD5P8w2T-111" value="#id_user" style="text;strokeColor=none;fillColor=none;spacingLeft=4;spacingRight=4;overflow=hidden;rotatable=0;points=[[0,0.5],[1,0.5]];portConstraint=eastwest;fontSize=12;" parent="kxt7OzJLR1ZBJD5P8w2T-109" vertex="1">
          <mxGeometry y="56" width="160" height="30" as="geometry" />
        </mxCell>
        <mxCell id="kxt7OzJLR1ZBJD5P8w2T-112" value="terme_recheche" style="text;strokeColor=none;fillColor=none;spacingLeft=4;spacingRight=4;overflow=hidden;rotatable=0;points=[[0,0.5],[1,0.5]];portConstraint=eastwest;fontSize=12;" parent="kxt7OzJLR1ZBJD5P8w2T-109" vertex="1">
          <mxGeometry y="86" width="160" height="30" as="geometry" />
        </mxCell>
      </root>
    </mxGraphModel>
  </diagram>
</mxfile>
